PathFileType	4	(X/Y/Z)	./resultDataOpenSim/trcMotMarkerGrf/sub09/qtm-05-06.trc
DataRate	CameraRate	NumFrames	NumMarkers	Units	OrigDataRate	OrigDataStartFrame	OrigNumFrames
250.000000	250.000000	13	24	m	250.000000	64	509
Frame#	Time	L.Toe.Tip			R.Toe.Tip			L.Ankle.Lat			R.Ankle.Lat			L.Ankle.Med			R.Ankle.Med			L.Heel			R.Heel			L.Knee.Lat			R.Knee.Lat			L.Knee.Med			R.Knee.Med			L.Thigh.Upper			R.Thigh.Upper			L.ASIS			R.ASIS			V.Sacral			L.Acromium			R.Acromium			C7			L.Elbow			R.Elbow			L.Wrist.Lat			R.Wrist.Lat
		X1	Y1	Z1	X2	Y2	Z2	X3	Y3	Z3	X4	Y4	Z4	X5	Y5	Z5	X6	Y6	Z6	X7	Y7	Z7	X8	Y8	Z8	X9	Y9	Z9	X10	Y10	Z10	X11	Y11	Z11	X12	Y12	Z12	X13	Y13	Z13	X14	Y14	Z14	X15	Y15	Z15	X16	Y16	Z16	X17	Y17	Z17	X18	Y18	Z18	X19	Y19	Z19	X20	Y20	Z20	X21	Y21	Z21	X22	Y22	Z22	X23	Y23	Z23	X24	Y24	Z24

64	0.252	-1.3128357	0.098353303	-0.051550755	-0.63097339	0.039252506	0.096404762	-1.3375981	0.25324868	-0.088143915	-0.77927909	0.053367052	0.12119921	-1.3117339	0.23494636	0.0040131117	-0.7607498	0.093152229	0.032300859	-1.4006559	0.29724009	-0.038329138	-0.84581506	0.03135458	0.069104213	-0.96190976	0.41979822	-0.11179804	-0.73030242	0.50403528	0.18497032	-0.95234532	0.40564408	0.013836732	-0.74405371	0.49220165	0.057942312	-0.95133901	0.82708694	-0.12937426	-0.92941131	0.85749247	0.24299302	-0.86398029	0.91304839	-0.075314988	-0.85811561	0.94102321	0.16362693	-1.029042	0.98431068	0.046398597	-0.86387519	1.3809388	-0.11888758	-0.90371735	1.3886696	0.20781162	-0.95181669	1.4367286	0.03914958	-0.96573097	1.0194838	-0.18814615	-1.0453675	1.0511505	0.28150079	-0.74663031	0.85970288	-0.18280435	-0.91851112	0.81101489	0.30768547
65	0.256	-1.2990184	0.10068208	-0.052960262	-0.63096003	0.039196019	0.096244095	-1.3246326	0.25547733	-0.087658044	-0.77923738	0.053494964	0.12102594	-1.2992963	0.23620248	0.004770834	-0.76060051	0.093081767	0.032147891	-1.3883794	0.29901322	-0.037379888	-0.84586993	0.031393805	0.069048894	-0.94919322	0.42072397	-0.11103153	-0.72700669	0.50367909	0.18478266	-0.93926493	0.40638343	0.014795361	-0.74141953	0.49188018	0.058089015	-0.94543991	0.8278583	-0.12916419	-0.92306401	0.85884044	0.24345419	-0.85846688	0.91411201	-0.075087512	-0.85237586	0.94211372	0.16373111	-1.0237739	0.98548927	0.046589392	-0.85861627	1.3819406	-0.11886244	-0.89756202	1.3896325	0.20798098	-0.94613867	1.4378643	0.039461747	-0.9606258	1.0205958	-0.18697434	-1.0382368	1.0515051	0.28233343	-0.74339181	0.85839474	-0.18262073	-0.90891966	0.81225701	0.30742032
66	0.26	-1.2848106	0.10285824	-0.054248937	-0.63096799	0.039154753	0.096103657	-1.3115276	0.25743059	-0.087189907	-0.77923145	0.053628846	0.12085641	-1.2872174	0.23730858	0.0056483745	-0.76048938	0.093024751	0.03202286	-1.3758984	0.30041075	-0.03659262	-0.84593539	0.031435587	0.068989433	-0.93667383	0.42177114	-0.11001801	-0.7238969	0.5033321	0.18461314	-0.92636466	0.40729855	0.01581492	-0.73871971	0.49159767	0.058125312	-0.93964547	0.82873738	-0.12899693	-0.91777548	0.86009946	0.24367529	-0.85288912	0.91529881	-0.074838365	-0.84660843	0.94326723	0.16384361	-1.0187528	0.98673305	0.046375132	-0.85341636	1.3830198	-0.11884092	-0.89145165	1.3906808	0.20815553	-0.94047365	1.4390531	0.039834872	-0.95550254	1.0218177	-0.18560808	-1.0311364	1.0519452	0.28312894	-0.74028915	0.85717483	-0.18245903	-0.89937624	0.81360748	0.3071223
67	0.264	-1.2703303	0.10486066	-0.055406394	-0.63099373	0.039128132	0.095990631	-1.2983393	0.25912208	-0.086743192	-0.77925038	0.05372805	0.12073151	-1.2756841	0.23826841	0.0066526486	-0.76040701	0.092979989	0.031927027	-1.3631249	0.30141905	-0.036037029	-0.84600069	0.031478856	0.068925217	-0.92409644	0.42297017	-0.10895662	-0.72098864	0.50299962	0.18447532	-0.91349094	0.4083689	0.016878457	-0.73596801	0.49136308	0.058053629	-0.93392274	0.82974069	-0.12880285	-0.91394212	0.86118517	0.24357749	-0.84735079	0.91659101	-0.074591648	-0.84071016	0.94448332	0.16398539	-1.0140056	0.98798566	0.045706	-0.84827054	1.384178	-0.11882071	-0.88538109	1.3918144	0.20832696	-0.93488935	1.4402898	0.040169343	-0.9503673	1.0231056	-0.1842581	-1.0240546	1.05247	0.28393951	-0.73732795	0.85604183	-0.18232444	-0.88986347	0.81509657	0.30679962
68	0.268	-1.2556253	0.10666146	-0.056387646	-0.63103698	0.039113774	0.095911722	-1.285112	0.26053781	-0.086314516	-0.77928481	0.053786296	0.12064938	-1.264226	0.23913192	0.0076299663	-0.76034435	0.092945754	0.031856727	-1.3502112	0.30209213	-0.035607252	-0.84605713	0.031519765	0.068854445	-0.91137429	0.42436299	-0.10797973	-0.71826561	0.502692	0.18438946	-0.90064348	0.40958422	0.017960942	-0.73327873	0.49116997	0.057986408	-0.92821387	0.83087591	-0.12854444	-0.91119911	0.86212139	0.24327406	-0.84195631	0.91797138	-0.074361073	-0.83460549	0.94576155	0.16418026	-1.0092616	0.98920224	0.044995366	-0.84316908	1.3854123	-0.11879761	-0.87935573	1.3930309	0.20849389	-0.92940969	1.4415793	0.040442668	-0.94527689	1.0244381	-0.18309126	-1.0169994	1.0530753	0.28475174	-0.73449857	0.85500023	-0.18221396	-0.88036092	0.81675233	0.30646428
69	0.272	-1.2407317	0.10823898	-0.057115949	-0.63109998	0.039109301	0.095869645	-1.2718613	0.26165024	-0.085899516	-0.77932859	0.05381221	0.12060086	-1.2518145	0.23998242	0.0082859482	-0.76029842	0.092921358	0.031808505	-1.3373497	0.30247893	-0.03517163	-0.84610188	0.031554971	0.068774976	-0.8986869	0.42595819	-0.10707106	-0.7157118	0.50241374	0.18436861	-0.88795171	0.41097945	0.019006926	-0.7307172	0.49100391	0.057986024	-0.92239326	0.83214777	-0.12819828	-0.90839953	0.86306875	0.24304051	-0.83672451	0.91943251	-0.074137181	-0.82837302	0.94707816	0.16443385	-1.0040095	0.99043084	0.044982888	-0.83810895	1.3867186	-0.11876685	-0.87338837	1.3943242	0.2086639	-0.92396284	1.4429249	0.04070734	-0.94022872	1.0258469	-0.18194975	-1.0099746	1.053757	0.28553462	-0.73179377	0.8540613	-0.18212301	-0.87088061	0.81857389	0.30612707
70	0.276	-1.2257072	0.10957402	-0.057539009	-0.63118421	0.039113522	0.095862385	-1.2585361	0.26244847	-0.08549467	-0.77938292	0.053801797	0.12060884	-1.2377514	0.24086367	0.0084197875	-0.76027142	0.092906317	0.03178073	-1.3245479	0.30256982	-0.034744942	-0.84613714	0.031586113	0.06868913	-0.88616329	0.42773576	-0.1061899	-0.71331792	0.50216107	0.18440887	-0.87560706	0.41262335	0.019927481	-0.7282324	0.49085951	0.057994348	-0.91633361	0.83355578	-0.12774845	-0.90442877	0.86420977	0.24310261	-0.83160795	0.92096728	-0.07390456	-0.82232483	0.9483842	0.16471471	-0.99803369	0.99178468	0.045987607	-0.83309575	1.3880914	-0.11872575	-0.86748988	1.3956854	0.20884742	-0.91840059	1.4443029	0.041033612	-0.93520209	1.0273545	-0.18066321	-1.002979	1.0545119	0.28627034	-0.72920888	0.85323039	-0.182052	-0.86146257	0.8205346	0.30579157
71	0.28	-1.2105396	0.11066167	-0.057696711	-0.63128735	0.039125274	0.095884102	-1.2450149	0.26296536	-0.085101416	-0.77946846	0.053757037	0.12070054	-1.222541	0.24167736	0.008205518	-0.7602686	0.092897123	0.031772179	-1.3116941	0.30233504	-0.034413066	-0.84616661	0.031617968	0.068604932	-0.87366651	0.42968393	-0.10538607	-0.71103882	0.5019228	0.1844833	-0.86371016	0.4145888	0.020657361	-0.72573305	0.49074538	0.057909671	-0.91010779	0.83507601	-0.12724505	-0.89907289	0.86559141	0.2434661	-0.82655093	0.92256668	-0.07365866	-0.81690542	0.94962451	0.16495439	-0.99177375	0.99332024	0.047423505	-0.82812771	1.3895203	-0.11867264	-0.86166142	1.3971081	0.2090492	-0.912656	1.4456759	0.041422107	-0.93022324	1.0289307	-0.17934065	-0.99601378	1.0553389	0.28696291	-0.7267285	0.85249897	-0.18200105	-0.85213436	0.8226071	0.30544989
72	0.284	-1.1951264	0.11152672	-0.057699546	-0.63140425	0.039143007	0.095926338	-1.2312332	0.26325719	-0.084724407	-0.77961996	0.053715132	0.12085443	-1.2073867	0.24223234	0.0080529467	-0.76029878	0.092887445	0.031782236	-1.2987223	0.3017681	-0.034201204	-0.84619361	0.031651682	0.068529177	-0.86096048	0.43180874	-0.10480565	-0.70874679	0.50166449	0.18454056	-0.85216621	0.41689658	0.021271269	-0.72320503	0.49066643	0.057712163	-0.90400621	0.83665443	-0.12681315	-0.89291979	0.86711867	0.24398168	-0.82151831	0.92422722	-0.073400474	-0.81230992	0.95077601	0.16509458	-0.985846	0.99498769	0.048447075	-0.82318853	1.3909932	-0.11860564	-0.85589139	1.3985905	0.20926386	-0.90685781	1.4470385	0.041791995	-0.9253442	1.0305413	-0.17817427	-0.98908644	1.0562377	0.2876269	-0.72432311	0.85185518	-0.18196346	-0.84288337	0.8247805	0.30509399
73	0.288	-1.1793918	0.11220679	-0.057630847	-0.63153175	0.03916626	0.095980455	-1.2172931	0.26334053	-0.08435518	-0.77984756	0.053723131	0.12101008	-1.1928309	0.2424414	0.0081673702	-0.76037038	0.092875088	0.031811441	-1.2856522	0.30087876	-0.034070251	-0.84622072	0.031683764	0.068463171	-0.84800232	0.43410932	-0.10449015	-0.70625112	0.50133046	0.18451531	-0.84076411	0.41946726	0.021991739	-0.72075135	0.49060827	0.057510048	-0.89823564	0.83824349	-0.1265348	-0.88667073	0.86866889	0.24449628	-0.81650842	0.92594695	-0.07312876	-0.80815014	0.95188389	0.16516428	-0.98037721	0.99668934	0.048858412	-0.81826075	1.3924996	-0.11852795	-0.85015469	1.4001282	0.20947789	-0.90119666	1.4484249	0.042073419	-0.92061482	1.0321856	-0.17725101	-0.98221092	1.0572061	0.2882752	-0.72196501	0.85129758	-0.18193486	-0.83365834	0.82706362	0.30472772
74	0.292	-1.163357	0.1127199	-0.057501514	-0.63167042	0.039195924	0.096041711	-1.2033291	0.26318119	-0.083976017	-0.78009692	0.053791223	0.12110874	-1.1784504	0.24236841	0.0084377734	-0.76048125	0.092868509	0.031858933	-1.2725413	0.29968111	-0.033975348	-0.84624972	0.031711564	0.068407966	-0.83506898	0.43655881	-0.10415141	-0.70352058	0.50091837	0.18439556	-0.82923025	0.42217192	0.022953917	-0.71849164	0.4905494	0.057430759	-0.89272183	0.83983715	-0.12637221	-0.8807637	0.87016592	0.24492066	-0.81154128	0.92771477	-0.072845949	-0.8037965	0.95302431	0.16525987	-0.97508177	0.99835777	0.048990331	-0.81334014	1.3940326	-0.11845039	-0.84442142	1.4017091	0.20967805	-0.89571797	1.4498637	0.042273854	-0.9160554	1.0338735	-0.17656505	-0.97540755	1.05824	0.28891928	-0.71964188	0.85083131	-0.18192364	-0.82440486	0.82947254	0.30436074
75	0.296	-1.1470709	0.11306296	-0.057303503	-0.63181997	0.039231353	0.096111256	-1.1893423	0.26274976	-0.083586476	-0.78024891	0.053892744	0.12108998	-1.163716	0.24210196	0.0086936016	-0.76061664	0.092880315	0.031919416	-1.2594172	0.29819121	-0.033895189	-0.846282	0.031736733	0.068368425	-0.82252936	0.43912683	-0.10338218	-0.70097048	0.50055767	0.18431301	-0.8173273	0.42493401	0.024068578	-0.71642446	0.4904819	0.057488941	-0.88726863	0.84145855	-0.12624464	-0.87540212	0.87157542	0.24523082	-0.80660688	0.92951693	-0.072558335	-0.79901726	0.95422415	0.16543147	-0.96970905	0.99999678	0.049100072	-0.80843315	1.3955864	-0.11838375	-0.83868162	1.4033226	0.20986098	-0.89032074	1.4513436	0.042443988	-0.91156474	1.0355953	-0.17592726	-0.96869775	1.0593328	0.2895714	-0.71735424	0.85045658	-0.18194192	-0.81514227	0.83200128	0.30399234
76	0.3	-1.130527	0.11324726	-0.057076858	-0.6319765	0.039268154	0.096193718	-1.1752712	0.26204417	-0.083195138	-0.78019313	0.053990175	0.12091219	-1.1487046	0.24166425	0.0089300169	-0.76075841	0.092913527	0.03198503	-1.2462269	0.29641261	-0.03381114	-0.84631793	0.031764159	0.06834709	-0.81042989	0.44182029	-0.1021614	-0.69916343	0.50040383	0.18444921	-0.80511613	0.42775897	0.025213213	-0.71443533	0.49040803	0.057618153	-0.88177041	0.84313247	-0.1261234	-0.87065455	0.87288174	0.24544536	-0.80161637	0.9313516	-0.072258637	-0.79397887	0.95545358	0.16565392	-0.96420054	1.0016364	0.049229762	-0.80354473	1.3971506	-0.11833098	-0.83294913	1.4049635	0.21003355	-0.8849034	1.4528347	0.042610402	-0.90691628	1.0373235	-0.17494821	-0.96208313	1.0604682	0.29023395	-0.71510705	0.85016469	-0.18199505	-0.80599755	0.83460507	0.30360588
